<svg width="109" height="24" viewBox="0 0 109 24" fill="none" xmlns="http://www.w3.org/2000/svg">
<path d="M108.453 23.5336H97.694C97.6073 23.5336 97.564 23.4795 97.564 23.3711L97.5965 0.503799C97.5965 0.417119 97.6398 0.373779 97.7265 0.373779H108.421C108.507 0.373779 108.551 0.427954 108.551 0.536305V4.25813C108.551 4.34481 108.507 4.38815 108.421 4.38815H101.595V9.58896H108.421C108.507 9.58896 108.551 9.6323 108.551 9.71898L108.583 13.4896C108.583 13.5762 108.54 13.6196 108.453 13.6196H101.595V19.438H108.453C108.54 19.438 108.583 19.4922 108.583 19.6005V23.4036C108.583 23.4903 108.54 23.5336 108.453 23.5336Z" fill="black"/>
<path d="M91.3389 23.5336H87.5846C87.4871 23.5336 87.4383 23.4795 87.4383 23.3711V4.38815H83.1152C83.0068 4.38815 82.9526 4.33398 82.9526 4.22563L82.9851 0.503799C82.9851 0.417119 83.0285 0.373779 83.1152 0.373779H95.7596C95.8788 0.373779 95.9384 0.417119 95.9384 0.503799V4.22563C95.9384 4.33398 95.8951 4.38815 95.8084 4.38815H91.4365L91.469 23.3711C91.469 23.4795 91.4256 23.5336 91.3389 23.5336Z" fill="black"/>
<path d="M70.9258 23.3711L75.0539 0.503799C75.0756 0.417119 75.1298 0.373779 75.2164 0.373779H80.0434C80.1301 0.373779 80.1843 0.417119 80.206 0.503799L84.1716 23.3711C84.1824 23.4795 84.1391 23.5336 84.0416 23.5336H80.3522C80.2439 23.5336 80.1843 23.4795 80.1735 23.3711L79.8159 20.9332H75.2815L74.9239 23.3711C74.9131 23.4795 74.8589 23.5336 74.7614 23.5336H71.0558C70.9691 23.5336 70.9258 23.4795 70.9258 23.3711ZM77.443 8.02872L75.9478 17.3739H79.1496L77.7843 8.02872L77.5893 6.79353L77.443 8.02872Z" fill="black"/>
<path d="M67.838 23.5336H64.0836C63.9861 23.5336 63.9374 23.4795 63.9374 23.3711V4.38815H59.6142C59.5058 4.38815 59.4517 4.33398 59.4517 4.22563L59.4842 0.503799C59.4842 0.417119 59.5275 0.373779 59.6142 0.373779H72.2586C72.3778 0.373779 72.4374 0.417119 72.4374 0.503799V4.22563C72.4374 4.33398 72.3941 4.38815 72.3074 4.38815H67.9355L67.968 23.3711C67.968 23.4795 67.9246 23.5336 67.838 23.5336Z" fill="black"/>
<path d="M52.3657 23.8587C51.1847 23.8587 50.0957 23.5553 49.0989 22.9486C48.1129 22.3418 47.3166 21.5346 46.7098 20.5269C46.1139 19.5084 45.8159 18.3924 45.8159 17.1789L45.8484 6.63103C45.8484 5.39584 46.1464 4.28525 46.7423 3.29926C47.3274 2.30244 48.1184 1.50607 49.1152 0.910141C50.112 0.30338 51.1955 0 52.3657 0C53.5792 0 54.6681 0.297963 55.6324 0.893889C56.6076 1.48981 57.3877 2.29161 57.9728 3.29926C58.5687 4.29608 58.8667 5.40667 58.8667 6.63103L58.8992 17.1789C58.8992 18.3924 58.6067 19.503 58.0216 20.5107C57.4256 21.5292 56.6347 22.3418 55.6487 22.9486C54.6627 23.5553 53.5684 23.8587 52.3657 23.8587ZM52.3657 19.8443C53.0375 19.8443 53.6225 19.5735 54.121 19.0317C54.6194 18.4791 54.8686 17.8615 54.8686 17.1789L54.8361 6.63103C54.8361 5.89425 54.6031 5.27123 54.1372 4.76199C53.6713 4.25274 53.0808 3.99812 52.3657 3.99812C51.6831 3.99812 51.098 4.24733 50.6104 4.74574C50.1228 5.24415 49.879 5.87258 49.879 6.63103V17.1789C49.879 17.9049 50.1228 18.5333 50.6104 19.0642C51.098 19.5843 51.6831 19.8443 52.3657 19.8443Z" fill="black"/>
<path d="M34.3904 23.5336H31.0587C30.8853 23.5336 30.7986 23.4578 30.7986 23.3061L30.7661 0.63382C30.7661 0.460459 30.8528 0.373779 31.0262 0.373779H34.0329L39.6562 13.4896L39.4937 0.63382C39.4937 0.460459 39.5912 0.373779 39.7863 0.373779H43.0855C43.2155 0.373779 43.2806 0.460459 43.2806 0.63382L43.3131 23.3386C43.3131 23.4686 43.2589 23.5336 43.1505 23.5336H40.2251L34.4554 11.2792L34.6992 23.2736C34.6992 23.4469 34.5963 23.5336 34.3904 23.5336Z" fill="#1A73E8"/>
<path d="M18.9505 23.5336H15.6187C15.4454 23.5336 15.3587 23.4578 15.3587 23.3061L15.3262 0.63382C15.3262 0.58352 15.3335 0.540517 15.3481 0.504811C15.3838 0.417457 15.4632 0.373779 15.5862 0.373779H18.5929L24.2163 13.4896L24.0538 0.63382C24.0538 0.460459 24.1513 0.373779 24.3463 0.373779H27.6456C27.7756 0.373779 27.8406 0.460459 27.8406 0.63382L27.8731 23.3386C27.8731 23.4686 27.8189 23.5336 27.7106 23.5336H24.7851L19.0155 11.2792L19.2593 23.2736C19.2593 23.4469 19.1563 23.5336 18.9505 23.5336Z" fill="#1A73E8"/>
<path d="M0 23.3711L4.12814 0.503799C4.14981 0.417119 4.20399 0.373779 4.29067 0.373779H9.11767C9.20435 0.373779 9.25852 0.417119 9.28019 0.503799L13.2458 23.3711C13.2566 23.4795 13.2133 23.5336 13.1158 23.5336H9.42646C9.31811 23.5336 9.25852 23.4795 9.24769 23.3711L8.89013 20.9332H4.35568L3.99812 23.3711C3.98729 23.4795 3.93311 23.5336 3.8356 23.5336H0.13002C0.0433401 23.5336 0 23.4795 0 23.3711ZM6.51726 8.02872L5.02203 17.3739H8.22378L6.85856 8.02872L6.66353 6.79353L6.51726 8.02872Z" fill="black"/>
</svg>
